<svg width="327" height="203" viewBox="0 0 327 203" fill="none" xmlns="http://www.w3.org/2000/svg">
<g clip-path="url(#clip0_7210_347334)">
<path d="M302.054 112.439C298.734 120.616 293.272 124.968 287.382 128.53C274.423 136.311 260.501 135.52 246.9 133.673C220.127 129.98 194.639 119.429 169.258 108.746C149.552 100.569 130.49 90.149 110.57 82.6314C92.6855 75.905 74.3726 72.3438 55.8454 79.9936C45.8856 84.0822 37.6394 90.9407 31.6421 101.624C24.4668 114.285 20.3973 114.021 13.7575 100.833C6.15381 85.9287 0.584929 70.2334 0.0494615 52.2965C-0.700194 28.2921 7.01055 9.03594 27.3584 2.04568C36.2471 -0.987823 45.5643 -0.196467 54.5602 1.51812C74.801 5.47487 93.0067 16.0262 110.356 28.6878C128.99 42.2725 146.768 57.572 165.83 70.2334C189.605 86.0604 214.13 100.041 240.261 108.746C256.646 114.154 273.353 116.66 290.273 114.945C294.129 114.549 298.091 113.23 302.054 112.439Z" fill="#6E8BE2"/>
<path d="M267.668 156.005C267.668 159.287 266.06 159.813 264.772 160.994C244.714 179.245 222.618 191.587 198.055 198.021C154.72 209.312 113.853 201.303 75.3453 175.043C65.4769 168.347 55.7162 161.126 48.9585 149.178C41.3427 135.916 40.3774 123.837 46.3843 112.152C49.8165 105.324 55.2869 102.173 61.0794 100.203C75.6669 95.3454 90.1476 97.0522 104.306 102.829C136.485 115.959 167.699 132.24 200.522 143.269C221.653 150.359 242.998 155.874 265.094 155.742C265.845 155.611 266.703 155.874 267.668 156.005Z" fill="#6E8BE2"/>
<path d="M167.209 46.4688C167.745 44.0962 168.925 43.8327 170.213 43.7009C182.551 41.5918 193.388 34.6062 204.225 27.6205C221.928 16.1533 239.846 4.68619 259.91 1.25925C277.827 -1.9041 295.423 0.468417 310.981 13.2536C322.676 22.8754 329.006 36.3197 326.431 53.8497C323.641 72.698 314.414 85.0881 299.393 91.0194C282.548 97.6094 265.81 94.5781 249.395 89.8329C220.533 81.5294 194.032 65.8441 168.174 48.0505C167.852 47.7866 167.638 47.1279 167.209 46.4688Z" fill="#6E8BE2"/>
</g>
<defs>
<clipPath id="clip0_7210_347334">
<rect width="327" height="203" fill="white"/>
</clipPath>
</defs>
</svg>
