<svg width="158" height="153" viewBox="0 0 158 153" fill="none" xmlns="http://www.w3.org/2000/svg">
<path d="M156.047 73.4104C156.047 79.744 155.218 85.8787 153.676 91.7231L84.3467 73.4104L90.5725 2C127.256 5.15022 156.047 35.9146 156.047 73.4104Z" fill="white"/>
<path d="M79.5385 8.94645L72.4496 79.9092L72.4082 79.9009L14.4948 120.895C6.56124 109.364 1.91797 95.4033 1.91797 80.3486C1.91797 40.7802 34.0004 8.70605 73.5696 8.70605C75.5758 8.70605 77.5646 8.78894 79.5385 8.94645Z" fill="#97CED5"/>
<path d="M49.2134 147.755L72.4081 79.9014L72.4495 79.9097L72.4081 80.349L142.907 98.4793C134.874 129.277 106.878 152 73.5687 152C65.0134 152 56.8153 150.499 49.2134 147.755Z" fill="#C5E0E4"/>
<path d="M72.408 79.9014L49.2133 147.755C35.0125 142.624 22.9007 133.132 14.4946 120.896L72.408 79.9014Z" fill="#3AA1AB"/>
<path d="M142.907 98.4789C134.874 129.276 106.878 151.999 73.5686 151.999C65.0133 151.999 56.8145 150.498 49.2125 147.755C35.0117 142.623 22.8999 133.131 14.4938 120.895C6.56024 109.364 1.91699 95.4033 1.91699 80.3486C1.91699 40.7802 33.9995 8.70605 73.5686 8.70605C75.5748 8.70605 77.5636 8.78894 79.5375 8.94645" stroke="#3AA1AB" stroke-width="2" stroke-miterlimit="10"/>
<path d="M79.5382 8.94727L72.4494 79.91L72.408 80.3494" stroke="#3AA1AB" stroke-width="2" stroke-miterlimit="10"/>
<path d="M72.408 80.3486L142.907 98.4789" stroke="#3AA1AB" stroke-width="2" stroke-miterlimit="10"/>
<path d="M84.3464 73.4104L153.676 91.7231C155.218 85.8787 156.047 79.744 156.047 73.4104C156.047 35.9146 127.256 5.15022 90.5723 2L84.3464 73.4104Z" stroke="#3AA1AB" stroke-width="2" stroke-miterlimit="10"/>
<path d="M72.408 79.9014L14.4946 120.896" stroke="#3AA1AB" stroke-width="2" stroke-miterlimit="10"/>
<path d="M72.4081 79.9014L49.2134 147.755" stroke="#3AA1AB" stroke-width="2" stroke-miterlimit="10"/>
<path d="M140.037 34.0615L147.789 86.2639L101.05 109.551L88.2002 53.7753L138.703 34.0615H140.037ZM126.051 70.7201C126.051 67.8932 123.763 65.5969 120.928 65.5969C118.101 65.5969 115.804 67.8932 115.804 70.7201C115.804 73.547 118.101 75.8433 120.928 75.8433C123.764 75.8433 126.051 73.547 126.051 70.7201Z" fill="white"/>
<path d="M120.928 65.5967C123.764 65.5967 126.052 67.893 126.052 70.7199C126.052 73.5468 123.764 75.8432 120.928 75.8432C118.102 75.8432 115.805 73.5468 115.805 70.7199C115.805 67.893 118.102 65.5967 120.928 65.5967Z" fill="#3AA1AB"/>
<path d="M119.644 33.7705C122.47 33.7705 124.767 35.1301 124.767 36.8046C124.767 38.4792 122.47 39.8388 119.644 39.8388C116.817 39.8388 114.52 38.4792 114.52 36.8046C114.52 35.1301 116.817 33.7705 119.644 33.7705Z" fill="#3AA1AB"/>
<path d="M99.7225 37.46C102.549 37.46 104.846 38.8195 104.846 40.4941C104.846 42.1687 102.549 43.5283 99.7225 43.5283C96.8873 43.5283 94.5918 42.1687 94.5918 40.4941C94.5918 38.8195 96.8873 37.46 99.7225 37.46Z" fill="#3AA1AB"/>
<path d="M88.1994 53.7751L101.049 109.55L73.1356 91.8762L60.7336 45.2529L88.1994 53.7751ZM83.8388 88.5767C85.8285 88.0627 86.873 85.4265 86.1692 82.6825C85.4637 79.9468 83.2759 78.1396 81.2855 78.6535C79.2884 79.1675 78.2431 81.8037 78.9486 84.5477C79.6524 87.2835 81.8401 89.0907 83.8388 88.5767ZM78.956 69.3023C80.9539 68.7884 81.9984 66.1521 81.2938 63.4081C80.5883 60.6724 78.4006 58.8652 76.4026 59.3792C74.4047 59.8932 73.3602 62.5294 74.0649 65.2734C74.7778 68.0091 76.9656 69.8163 78.956 69.3023Z" fill="white"/>
<path d="M86.1684 82.6827C86.8731 85.4267 85.8285 88.0629 83.8381 88.5769C81.8402 89.0909 79.6516 87.2837 78.9478 84.548C78.2423 81.804 79.2877 79.1677 81.2848 78.6538C83.2752 78.1398 85.4629 79.947 86.1684 82.6827Z" fill="#3AA1AB"/>
<path d="M78.7239 41.3408C81.5591 41.3408 83.8554 42.7004 83.8554 44.375C83.8554 46.0495 81.5582 47.4091 78.7239 47.4091C75.897 47.4091 73.6006 46.0495 73.6006 44.375C73.6006 42.7004 75.8961 41.3408 78.7239 41.3408Z" fill="#3AA1AB"/>
<path d="M81.2938 63.4083C81.9985 66.1523 80.9539 68.7885 78.956 69.3025C76.9664 69.8165 74.7778 68.0093 74.0649 65.2735C73.3602 62.5295 74.4048 59.8933 76.4027 59.3793C78.4006 58.8654 80.5892 60.6726 81.2938 63.4083Z" fill="#3AA1AB"/>
<path d="M78.7239 41.3402C75.897 41.3402 73.6006 42.6998 73.6006 44.3744C73.6006 46.049 75.897 47.4086 78.7239 47.4086C81.5591 47.4086 83.8554 46.049 83.8554 44.3744C83.8554 42.6998 81.5591 41.3402 78.7239 41.3402ZM138.702 34.0616L88.1994 53.7753L60.7336 45.2531L102.598 29.1953L138.702 34.0616ZM119.644 39.8397C122.47 39.8397 124.767 38.4802 124.767 36.8056C124.767 35.131 122.47 33.7714 119.644 33.7714C116.817 33.7714 114.52 35.131 114.52 36.8056C114.52 38.4802 116.817 39.8397 119.644 39.8397ZM104.845 40.4946C104.845 38.8201 102.549 37.4605 99.7217 37.4605C96.8865 37.4605 94.591 38.8201 94.591 40.4946C94.591 42.1692 96.8874 43.5288 99.7217 43.5288C102.549 43.5288 104.845 42.1692 104.845 40.4946Z" fill="white"/>
<path d="M74.4377 103.035L71.1881 128.859L67.1177 136.278L71.1881 105.273L74.4377 103.035Z" fill="white"/>
<path d="M74.4377 103.035L71.188 105.273L43.3335 99.5362L48.8215 98.8232L74.4377 103.035Z" fill="white"/>
<path d="M64.548 106.367C66.3884 106.367 67.8806 107.859 67.8806 109.692C67.8806 111.532 66.3884 113.032 64.548 113.032C62.7076 113.032 61.2146 111.532 61.2146 109.692C61.2146 107.859 62.7076 106.367 64.548 106.367Z" fill="#3AA1AB"/>
<path d="M62.4007 133.003C64.2413 133.003 65.7333 131.511 65.7333 129.671C65.7333 127.83 64.2413 126.338 62.4007 126.338C60.5602 126.338 59.0681 127.83 59.0681 129.671C59.0681 131.511 60.5602 133.003 62.4007 133.003Z" fill="#3AA1AB"/>
<path d="M42.853 44.8302L58.43 64.9915L41.2447 66.1355L23.6118 42.998L42.853 44.8302ZM44.3121 56.2704C45.2406 55.259 44.909 53.4518 43.5908 52.2497C42.2644 51.0394 40.4406 50.8819 39.5121 51.9015C38.5919 52.9129 38.9152 54.7119 40.2416 55.9222C41.568 57.1243 43.3911 57.2818 44.3121 56.2704Z" fill="white"/>
<path d="M54.318 121.239C56.1585 121.239 57.6505 119.747 57.6505 117.907C57.6505 116.066 56.1585 114.574 54.318 114.574C52.4774 114.574 50.9854 116.066 50.9854 117.907C50.9854 119.747 52.4774 121.239 54.318 121.239Z" fill="#3AA1AB"/>
<path d="M47.6529 110.596C49.4934 110.596 50.9855 109.104 50.9855 107.263C50.9855 105.423 49.4934 103.931 47.6529 103.931C45.8123 103.931 44.3203 105.423 44.3203 107.263C44.3203 109.104 45.8123 110.596 47.6529 110.596Z" fill="#3AA1AB"/>
<path d="M48.3489 71.0347C48.9201 72.0378 48.15 73.5466 46.6403 74.4087C45.1233 75.2626 43.4329 75.1549 42.8684 74.1518C42.2972 73.1487 43.0674 71.6399 44.577 70.7777C46.0941 69.9238 47.7852 70.0316 48.3489 71.0347Z" fill="#3AA1AB"/>
<path d="M44.3199 129.671C46.1605 129.671 47.6525 128.179 47.6525 126.338C47.6525 124.498 46.1605 123.006 44.3199 123.006C42.4794 123.006 40.9873 124.498 40.9873 126.338C40.9873 128.179 42.4794 129.671 44.3199 129.671Z" fill="#3AA1AB"/>
<path d="M43.5906 52.2496C44.9087 53.4516 45.2403 55.2589 44.3118 56.2703C43.3916 57.2817 41.5678 57.1242 40.2414 55.9221C38.915 54.7118 38.5917 52.9128 39.5119 51.9014C40.4404 50.8817 42.2642 51.0392 43.5906 52.2496Z" fill="#3AA1AB"/>
<path d="M44.32 107.262C44.32 109.103 45.8122 110.595 47.6535 110.595C49.4938 110.595 50.986 109.103 50.986 107.262C50.986 105.422 49.4938 103.93 47.6535 103.93C45.8114 103.93 44.32 105.422 44.32 107.262ZM67.8803 109.691C67.8803 107.859 66.3881 106.367 64.5477 106.367C62.7073 106.367 61.2143 107.859 61.2143 109.691C61.2143 111.532 62.7073 113.032 64.5477 113.032C66.3881 113.032 67.8803 111.532 67.8803 109.691ZM40.9874 126.338C40.9874 128.178 42.4796 129.67 44.32 129.67C46.1604 129.67 47.6535 128.178 47.6535 126.338C47.6535 124.497 46.1604 123.005 44.32 123.005C42.4796 123.005 40.9874 124.497 40.9874 126.338ZM38.4258 130.077L43.3335 99.5361L71.188 105.273L67.1176 136.278L38.4258 130.077ZM62.4006 133.003C64.241 133.003 65.7332 131.511 65.7332 129.67C65.7332 127.83 64.241 126.338 62.4006 126.338C60.5594 126.338 59.0672 127.83 59.0672 129.67C59.068 131.511 60.5594 133.003 62.4006 133.003ZM57.6504 117.907C57.6504 116.066 56.1582 114.574 54.3178 114.574C52.4766 114.574 50.9844 116.066 50.9844 117.907C50.9844 119.747 52.4766 121.239 54.3178 121.239C56.1582 121.239 57.6504 119.747 57.6504 117.907Z" fill="white"/>
<path d="M41.7327 79.1345C42.2972 80.1376 41.5346 81.6463 40.0175 82.5085C38.5087 83.3707 36.8175 83.2546 36.2447 82.2515C35.681 81.2484 36.4436 79.7396 37.9607 78.8774C39.4703 78.0236 41.1615 78.1397 41.7327 79.1345Z" fill="#3AA1AB"/>
<path d="M43.7644 83.7682L24.9883 86.7526L41.2442 66.1352L58.4295 64.9912L43.7644 83.7682ZM40.0173 82.5081C41.5344 81.6459 42.2971 80.1372 41.7325 79.1341C41.1613 78.1393 39.4702 78.0232 37.9605 78.877C36.4435 79.7392 35.6808 81.248 36.2445 82.2511C36.8173 83.2542 38.5085 83.3702 40.0173 82.5081ZM46.6402 74.4087C48.149 73.5466 48.92 72.0378 48.3488 71.0347C47.7851 70.0316 46.0939 69.9238 44.5768 70.7777C43.0681 71.6399 42.2971 73.1487 42.8682 74.1517C43.4328 75.1548 45.1231 75.2626 46.6402 74.4087Z" fill="white"/>
<path d="M33.1203 62.8857C34.911 62.8857 36.3617 64.3448 36.3617 66.1354C36.3617 67.9261 34.911 69.3852 33.1203 69.3852C31.3214 69.3852 29.8706 67.9261 29.8706 66.1354C29.8706 64.3448 31.3214 62.8857 33.1203 62.8857Z" fill="#3AA1AB"/>
<path d="M24.9455 73.7539C26.7361 73.7539 28.1952 75.2047 28.1952 76.9953C28.1952 78.7943 26.7361 80.245 24.9455 80.245C23.1548 80.245 21.6958 78.7943 21.6958 76.9953C21.6966 75.2047 23.1548 73.7539 24.9455 73.7539Z" fill="#3AA1AB"/>
<path d="M23.2717 49.8789C25.0623 49.8789 26.5214 51.3296 26.5214 53.1286C26.5214 54.9192 25.0623 56.37 23.2717 56.37C21.481 56.37 20.0303 54.9192 20.0303 53.1286C20.0303 51.3296 21.481 49.8789 23.2717 49.8789Z" fill="#3AA1AB"/>
<path d="M15.1052 60.7383C16.8958 60.7383 18.3466 62.1973 18.3466 63.988C18.3466 65.7786 16.8958 67.2376 15.1052 67.2376C13.3062 67.2376 11.8555 65.7786 11.8555 63.988C11.8555 62.1973 13.3062 60.7383 15.1052 60.7383Z" fill="#3AA1AB"/>
<path d="M23.2717 49.8788C21.4811 49.8788 20.0303 51.3295 20.0303 53.1285C20.0303 54.9191 21.4811 56.3699 23.2717 56.3699C25.0624 56.3699 26.5214 54.9191 26.5214 53.1285C26.5214 51.3295 25.0624 49.8788 23.2717 49.8788ZM11.8555 63.9884C11.8555 65.7791 13.3062 67.2381 15.1052 67.2381C16.8958 67.2381 18.3466 65.7791 18.3466 63.9884C18.3466 62.1978 16.8958 60.7388 15.1052 60.7388C13.3062 60.7388 11.8555 62.1978 11.8555 63.9884ZM8.47314 64.5356L23.6116 42.998L41.2445 66.1355L24.9886 86.7529L8.47314 64.5356ZM36.3617 66.1355C36.3617 64.3449 34.9109 62.8858 33.1203 62.8858C31.3213 62.8858 29.8705 64.3449 29.8705 66.1355C29.8705 67.9262 31.3213 69.3853 33.1203 69.3853C34.9109 69.3853 36.3617 67.9262 36.3617 66.1355ZM28.1952 76.9955C28.1952 75.2049 26.7361 73.7541 24.9455 73.7541C23.1548 73.7541 21.6958 75.2049 21.6958 76.9955C21.6958 78.7945 23.1548 80.2452 24.9455 80.2452C26.7361 80.2452 28.1952 78.7945 28.1952 76.9955Z" fill="white"/>
<path d="M60.7336 45.2531L88.1994 53.7753L138.702 34.0616L102.598 29.1953L60.7336 45.2531Z" stroke="#3AA1AB" stroke-width="2" stroke-miterlimit="10"/>
<path d="M88.1992 53.7754L101.049 109.551" stroke="#3AA1AB" stroke-width="2" stroke-miterlimit="10"/>
<path d="M60.7336 45.2531L73.1356 91.8763L101.049 109.551L147.788 86.2639L140.037 34.0615" stroke="#3AA1AB" stroke-width="2" stroke-miterlimit="10"/>
<path d="M23.6118 42.998L41.2447 66.1355L58.43 64.9915L42.853 44.8302L23.6118 42.998Z" stroke="#3AA1AB" stroke-width="2" stroke-miterlimit="10"/>
<path d="M23.6116 42.998L8.47314 64.5356L24.9877 86.7529L43.7647 83.7685L58.4297 64.9915" stroke="#3AA1AB" stroke-width="2" stroke-miterlimit="10"/>
<path d="M41.2446 66.1357L24.9878 86.7531" stroke="#3AA1AB" stroke-width="2" stroke-miterlimit="10"/>
<path d="M43.3335 99.5361L71.188 105.273L67.1176 136.278L38.4258 130.077L43.3335 99.5361Z" stroke="#3AA1AB" stroke-width="2" stroke-miterlimit="10"/>
<path d="M67.1176 136.278L71.188 128.858L74.4377 103.035L48.8215 98.8232L43.3335 99.5362" stroke="#3AA1AB" stroke-width="2" stroke-miterlimit="10"/>
<path d="M71.188 105.273L74.4377 103.035" stroke="#3AA1AB" stroke-width="2" stroke-miterlimit="10"/>
</svg>
