<svg width="231" height="150" viewBox="0 0 231 150" fill="none" xmlns="http://www.w3.org/2000/svg">
<path d="M219.76 70.1148C219.855 70.9769 219.855 71.839 219.855 72.701C219.855 108.046 191.216 136.59 155.967 136.59C155.775 136.59 155.583 136.59 155.392 136.59V131.705C155.488 131.705 155.583 131.705 155.679 131.705C188.055 131.705 214.396 105.46 214.396 72.9884C214.396 72.0305 214.396 71.0727 214.3 70.019H219.76V70.1148Z" fill="white"/>
<path d="M219.76 70.1152H214.204C212.672 39.0807 187.001 14.3681 155.583 14.3681C155.488 14.3681 155.392 14.3681 155.296 14.3681V8.8125C155.488 8.8125 155.679 8.8125 155.871 8.8125C190.354 8.8125 218.419 36.0156 219.76 70.1152Z" fill="white"/>
<path d="M214.204 70.1152C214.3 71.0731 214.3 72.0309 214.3 73.0846C214.3 105.46 188.055 131.801 155.583 131.801C155.488 131.801 155.392 131.801 155.296 131.801V120.786C155.488 120.786 155.679 120.786 155.871 120.786C182.308 120.786 203.764 99.3298 203.764 72.893C203.764 72.031 203.764 71.1689 203.668 70.3068H214.204V70.1152Z" fill="white"/>
<path d="M214.204 70.1148H203.764C202.423 44.8274 181.541 24.8083 155.871 24.8083C155.679 24.8083 155.488 24.8083 155.296 24.8083V14.3677C155.392 14.3677 155.488 14.3677 155.583 14.3677C187.001 14.3677 212.672 39.0803 214.204 70.1148Z" fill="white"/>
<path d="M203.764 70.1152C203.859 70.9773 203.859 71.8394 203.859 72.7014C203.859 99.1382 182.403 120.594 155.967 120.594C155.775 120.594 155.583 120.594 155.392 120.594V96.6478C155.583 96.6478 155.775 96.6478 155.967 96.6478C169.185 96.6478 179.913 85.9198 179.913 72.7014C179.913 71.8394 179.817 70.9773 179.721 70.1152H203.764Z" fill="#C6D8E9"/>
<path d="M203.764 70.1147H179.721C178.476 58.1415 168.227 48.7545 155.871 48.7545C155.679 48.7545 155.488 48.7545 155.296 48.7545V24.7124C155.488 24.7124 155.679 24.7124 155.871 24.7124C181.446 24.8082 202.423 44.8273 203.764 70.1147Z" fill="#C6D8E9"/>
<path d="M168.993 70.1152C169.377 71.4562 169.664 72.893 169.664 74.3298C169.664 82.0884 163.342 88.506 155.488 88.506C155.392 88.506 155.296 88.506 155.296 88.506V70.1152H168.993Z" fill="white"/>
<path d="M168.993 70.1153H155.296V58.1421H162.097V61.8777C165.354 63.6019 167.844 66.5712 168.993 70.1153Z" fill="white"/>
<path d="M155.296 131.705V136.59C120.238 136.303 91.9817 107.759 91.9817 72.7014C91.9817 71.8394 91.9817 70.9773 92.0775 70.1152H96.9625C96.8667 71.0731 96.8668 72.0309 96.8668 73.0846C96.8668 105.364 123.016 131.609 155.296 131.705Z" fill="white"/>
<path d="M155.296 120.69V131.705C123.016 131.513 96.8669 105.364 96.8669 72.9884C96.8669 72.0305 96.8669 71.0727 96.9627 70.019H107.978C107.882 70.8811 107.882 71.7432 107.882 72.6052C107.978 99.042 129.051 120.306 155.296 120.69Z" fill="white"/>
<path d="M155.296 96.6478V120.594C129.147 120.307 107.978 98.9466 107.978 72.7014C107.978 71.8394 107.978 70.9773 108.074 70.1152H132.116C132.02 70.9773 131.924 71.8394 131.924 72.7014C131.924 85.7283 142.365 96.3604 155.296 96.6478Z" fill="#C6D8E9"/>
<path d="M155.296 70.1152V88.506C147.633 88.4102 141.407 82.0884 141.407 74.3298C141.407 72.7972 141.599 71.4562 142.078 70.1152H155.296Z" fill="white"/>
<path d="M155.296 58.1421V70.1153H142.078C143.227 66.5712 145.717 63.6019 148.974 61.8777V58.1421H155.296Z" fill="white"/>
<path d="M155.296 24.8081V48.8502C143.227 49.1376 133.361 58.333 132.116 70.2104H108.074C109.319 45.0188 129.913 25.0955 155.296 24.8081Z" fill="#C6D8E9"/>
<path d="M155.296 14.3677V24.8083C130.009 25.0956 109.415 45.1148 108.074 70.1148H97.0583C98.4951 39.1761 123.974 14.4635 155.296 14.3677Z" fill="white"/>
<path d="M155.296 8.8125V14.3681C123.974 14.5596 98.4951 39.1765 96.9625 70.1152H91.9817C93.4185 36.2071 121.1 9.09986 155.296 8.8125Z" fill="white"/>
<path d="M74.1658 65.8047V70.115H66.7904V66.3794L66.6946 65.7089C69.2808 65.1342 71.867 65.0384 74.1658 65.8047Z" fill="#C6D8E9"/>
<path d="M74.1657 61.4946V65.805C71.9627 65.1345 69.2807 65.1345 66.6945 65.7092C63.6293 66.3797 60.5642 67.7207 58.3612 69.2533C57.978 69.5406 57.5949 69.828 57.3075 70.1153H26.1772V61.4946H74.1657Z" fill="white"/>
<path d="M74.1657 57.7583V61.4939H26.1772V57.7583H29.9129H36.0431H42.1734H48.3037H54.434H60.66H66.7903H74.1657Z" fill="#7B8F94"/>
<path d="M74.1658 49.1377V57.7584H66.7903L74.1658 49.1377Z" fill="#C6D8E9"/>
<path d="M74.1657 49.1377L66.7902 57.7584H60.6599L68.0354 49.1377H74.1657Z" fill="#C6D8E9"/>
<path d="M67.8438 44.2529L68.0354 49.138L60.6599 57.7587H54.4338L66.7902 44.2529H67.8438Z" fill="#C6D8E9"/>
<path d="M67.6524 38.4102L67.8439 44.2531H66.7903L54.434 57.7588H48.3037L67.6524 38.4102Z" fill="#C6D8E9"/>
<path d="M67.4607 31.3223L67.6523 38.4104L48.3036 57.7591H42.1733L67.4607 31.3223Z" fill="#C6D8E9"/>
<path d="M67.3651 27.0117L67.4608 31.3221L42.1735 57.7589H36.0432L66.7903 27.0117H67.3651Z" fill="#C6D8E9"/>
<path d="M67.2692 24.6172L67.365 27.0118H66.7902L36.0431 57.759H29.9128L63.0546 24.6172H66.7902H67.2692Z" fill="#C6D8E9"/>
<path d="M66.9819 14.8467L67.2692 24.6168H66.7903H63.0547H58.1696H50.7941H44.6638H38.5336H33.5527V14.8467H66.9819Z" fill="white"/>
<path d="M66.7903 8.62061L66.9819 14.8467H33.5527V8.62061H66.7903Z" fill="white"/>
<path d="M63.0546 24.6172L29.9129 57.759H26.1772V54.1191L31.1581 49.1383H33.5527V46.7436H34.7979L58.1696 24.6172H63.0546Z" fill="#C6D8E9"/>
<path d="M58.1696 24.6172L34.7979 46.7436H33.5527V43.008L50.7941 24.6172H58.1696Z" fill="#C6D8E9"/>
<path d="M26.1772 70.1152H57.2117C55.5834 71.4562 54.0508 73.0846 52.3267 74.3298C47.3458 77.9696 41.1198 78.7359 34.7979 78.5444C32.0202 78.4486 29.2424 78.1612 26.5604 77.7781H26.1772V70.1152Z" fill="white"/>
<path d="M50.7941 24.6172L33.5527 43.008V36.8777L44.6638 24.6172H50.7941Z" fill="#C6D8E9"/>
<path d="M44.6638 24.6172L33.5527 36.8777V31.9927L38.5336 24.6172H44.6638Z" fill="#C6D8E9"/>
<path d="M38.5336 24.6172L33.5527 31.9927V24.6172H38.5336Z" fill="#C6D8E9"/>
<path d="M31.1581 49.1377L26.1772 54.1185V49.1377H31.1581Z" fill="#C6D8E9"/>
<path d="M219.76 70.1152C219.855 70.9772 219.855 71.8393 219.855 72.7014C219.855 108.046 191.216 136.59 155.967 136.59C155.775 136.59 155.583 136.59 155.392 136.59C120.334 136.303 92.0776 107.759 92.0776 72.7014C92.0776 71.8393 92.0776 70.9772 92.1734 70.1152C93.5144 36.2071 121.292 9.09986 155.392 8.8125C155.583 8.8125 155.775 8.8125 155.967 8.8125C190.353 8.8125 218.419 36.0156 219.76 70.1152Z" stroke="#7D87A1" stroke-miterlimit="10"/>
<path d="M203.763 70.1146C203.859 70.9767 203.859 71.8387 203.859 72.7008C203.859 99.1376 182.403 120.594 155.966 120.594C155.775 120.594 155.583 120.594 155.392 120.594C129.242 120.306 108.074 98.946 108.074 72.7008C108.074 71.8387 108.074 70.9767 108.17 70.1146C109.511 45.0188 130.104 25.0955 155.392 24.8081C155.583 24.8081 155.775 24.8081 155.966 24.8081C181.445 24.8081 202.422 44.8273 203.763 70.1146Z" stroke="#7D87A1" stroke-miterlimit="10"/>
<path d="M179.721 70.115C179.817 70.9771 179.913 71.8392 179.913 72.7012C179.913 85.9196 169.185 96.6476 155.967 96.6476C155.775 96.6476 155.583 96.6476 155.392 96.6476C142.461 96.3602 132.02 85.7281 132.02 72.7012C132.02 71.8392 132.116 70.9771 132.212 70.115C133.457 58.3334 143.323 49.0422 155.392 48.7549C155.583 48.7549 155.775 48.7549 155.967 48.7549C168.227 48.7549 178.38 58.1419 179.721 70.115Z" stroke="#7D87A1" stroke-miterlimit="10"/>
<path d="M168.994 70.1153C167.844 66.5712 165.354 63.6019 162.097 61.8777V58.1421H155.296H148.879V61.8777C145.622 63.6019 143.131 66.5712 141.982 70.1153C141.599 71.4563 141.312 72.8931 141.312 74.3298C141.312 82.0885 147.538 88.3145 155.2 88.5061C155.296 88.5061 155.392 88.5061 155.392 88.5061C163.151 88.5061 169.568 82.1842 169.568 74.3298C169.664 72.8931 169.377 71.4563 168.994 70.1153Z" stroke="#7D87A1" stroke-miterlimit="10"/>
<path d="M214.204 70.1148C214.3 71.0727 214.3 72.0305 214.3 73.0842C214.3 105.46 188.055 131.801 155.583 131.801C155.488 131.801 155.392 131.801 155.296 131.801C123.016 131.609 96.8669 105.46 96.8669 73.0842C96.8669 72.1263 96.8669 71.1684 96.9627 70.1148C98.4953 39.1761 123.974 14.4635 155.296 14.3677C155.392 14.3677 155.488 14.3677 155.583 14.3677C187.001 14.3677 212.672 39.0803 214.204 70.1148Z" stroke="#7D87A1" stroke-miterlimit="10" stroke-dasharray="8 8"/>
<path d="M66.9818 14.8467L66.7903 8.62061H33.5527V14.8467V24.6168V31.9922V36.8773V43.0076V46.7432V49.1378H31.1581H26.1772V54.1187V57.7585V61.4942V70.1149V77.7777V97.1263H34.7979V103.257V106.896V110.632V112.452V124.138V131.705V136.398H66.7903V131.705V124.138V122.893V119.253V115.517V97.1263H74.1657V70.1149V65.8045V61.4942V57.7585V49.1378H68.0355L67.8439 44.2528L67.6523 38.4099L67.4608 31.3218L67.365 27.0114L67.2692 24.6168L66.9818 14.8467Z" stroke="#7D87A1" stroke-miterlimit="10"/>
<path d="M22.5374 14.8467H33.5527H66.9818H75.9856" stroke="#7D87A1" stroke-miterlimit="10" stroke-dasharray="8 8"/>
<path d="M22.5374 131.705H34.7979H66.7902H79.7213" stroke="#7D87A1" stroke-miterlimit="10" stroke-dasharray="8 8"/>
<path d="M16.9819 70.1152H26.1773H57.2118H66.7904H74.1658H91.9819H96.9628H107.978H132.02H142.078H155.296H168.993H179.721H203.764H214.204H219.76H230.871" stroke="#7D87A1" stroke-miterlimit="10" stroke-dasharray="8 8"/>
<path d="M155.296 0V8.81226V14.3678V24.8084V48.7548V58.1418V70.1149V88.5057V96.6475V120.69V131.705V136.686V150" stroke="#7D87A1" stroke-miterlimit="10" stroke-dasharray="8 8"/>
<path d="M26.5603 77.7778C29.2423 78.0651 32.0201 78.3525 34.7979 78.5441C41.1197 78.8314 47.3457 78.0651 52.3266 74.3295C54.0507 73.0843 55.5833 71.4559 57.2116 70.1149C57.5948 69.8276 57.8821 69.5402 58.2653 69.2529C60.4684 67.6245 63.5335 66.2835 66.5986 65.7088C69.1848 65.1341 71.8668 65.1341 74.0699 65.8046C74.1657 65.8046 74.2615 65.9004 74.3572 65.9004" stroke="#7D87A1" stroke-miterlimit="10"/>
<path d="M34.7979 97.1267V78.6401" stroke="#7D87A1" stroke-miterlimit="10"/>
<path d="M66.7903 97.126V70.1145V66.3789" stroke="#7D87A1" stroke-miterlimit="10"/>
<path d="M74.1657 57.7583H66.7903H60.66H54.434H48.3037H42.1734H36.0431H29.9129H26.1772" stroke="#7D87A1" stroke-miterlimit="10"/>
<path d="M74.1657 61.4946H26.1772" stroke="#7D87A1" stroke-miterlimit="10"/>
<path d="M66.7903 24.6172H63.0547H58.1696H50.7941H44.6638H38.5336H33.5527" stroke="#7D87A1" stroke-miterlimit="10"/>
<path d="M34.7979 103.256L66.7902 115.517" stroke="#83BA64" stroke-width="0.5" stroke-miterlimit="10"/>
<path d="M34.7979 106.896L66.7902 119.253" stroke="#83BA64" stroke-width="0.5" stroke-miterlimit="10"/>
<path d="M34.7979 110.632L66.7902 122.893" stroke="#83BA64" stroke-width="0.5" stroke-miterlimit="10"/>
<path d="M38.5336 24.6172L33.5527 31.9927" stroke="#83BA64" stroke-width="0.5" stroke-miterlimit="10"/>
<path d="M44.6638 24.6172L33.5527 36.8777" stroke="#83BA64" stroke-width="0.5" stroke-miterlimit="10"/>
<path d="M50.7941 24.6172L33.5527 43.008" stroke="#83BA64" stroke-width="0.5" stroke-miterlimit="10"/>
<path d="M58.1695 24.6172L34.7979 46.7436" stroke="#83BA64" stroke-width="0.5" stroke-miterlimit="10"/>
<path d="M31.1581 49.1377L26.1772 54.1185" stroke="#83BA64" stroke-width="0.5" stroke-miterlimit="10"/>
<path d="M63.0546 24.6172L29.9128 57.759" stroke="#83BA64" stroke-width="0.5" stroke-miterlimit="10"/>
<path d="M66.7903 27.0117L36.0432 57.7589" stroke="#83BA64" stroke-width="0.5" stroke-miterlimit="10"/>
<path d="M68.0357 30.7471L67.4609 31.3218L42.1736 57.7586" stroke="#83BA64" stroke-width="0.5" stroke-miterlimit="10"/>
<path d="M68.0355 38.1226L67.6524 38.4099L48.3037 57.7586" stroke="#83BA64" stroke-width="0.5" stroke-miterlimit="10"/>
<path d="M66.7902 44.2529L54.4338 57.7587" stroke="#83BA64" stroke-width="0.5" stroke-miterlimit="10"/>
<path d="M68.0354 49.1377L60.6599 57.7584" stroke="#83BA64" stroke-width="0.5" stroke-miterlimit="10"/>
<path d="M74.1658 49.1377L66.7903 57.7584" stroke="#83BA64" stroke-width="0.5" stroke-miterlimit="10"/>
<path d="M66.7903 124.138H34.798H16.503H10.1812" stroke="black" stroke-miterlimit="10"/>
<path d="M16.4072 105.747L21.4839 107.567L34.798 112.452L66.7904 124.138" stroke="black" stroke-miterlimit="10"/>
<path d="M21.4838 107.567C21.4838 107.567 12.8631 113.027 16.4072 124.138" stroke="black" stroke-miterlimit="10"/>
<path d="M5.08417 119.623C5.97041 119.623 6.68216 119.875 7.21941 120.38C7.76126 120.881 8.03218 121.53 8.03218 122.329C8.03218 122.747 7.91968 123.131 7.69468 123.48C7.46967 123.829 7.15512 124.109 6.75104 124.32C7.31584 124.527 7.74748 124.855 8.04596 125.305C8.34903 125.75 8.50056 126.272 8.50056 126.869C8.50056 127.81 8.21356 128.556 7.63957 129.107C7.07017 129.654 6.3148 129.927 5.37346 129.927C4.54232 129.927 3.85123 129.709 3.3002 129.272V132.434H2.01905V122.398C2.01905 121.902 2.15911 121.439 2.43922 121.007C2.71932 120.575 3.09586 120.238 3.56883 119.994C4.04639 119.747 4.5515 119.623 5.08417 119.623ZM6.75792 122.302C6.75792 121.834 6.6018 121.446 6.28955 121.138C5.9773 120.826 5.5755 120.669 5.08417 120.669C4.58824 120.669 4.16808 120.833 3.82368 121.159C3.47929 121.485 3.30479 121.893 3.3002 122.385V128.095C3.50225 128.333 3.76858 128.526 4.0992 128.673C4.42982 128.816 4.81095 128.887 5.24259 128.887C5.85791 128.887 6.34235 128.703 6.69593 128.336C7.04951 127.968 7.2263 127.489 7.2263 126.896C7.2263 126.354 7.06558 125.895 6.74415 125.519C6.42271 125.137 6.01174 124.94 5.51122 124.926H4.47803V123.879H5.0635C5.61453 123.879 6.03469 123.744 6.32399 123.473C6.61328 123.197 6.75792 122.807 6.75792 122.302Z" fill="white"/>
<path d="M7.21941 120.38L7.13379 120.471L7.13459 120.472L7.21941 120.38ZM6.75104 124.32L6.69313 124.209L6.44251 124.34L6.70809 124.437L6.75104 124.32ZM8.04596 125.305L7.94178 125.374L7.94261 125.375L8.04596 125.305ZM7.63957 129.107L7.72612 129.197L7.72614 129.197L7.63957 129.107ZM3.3002 129.272L3.37779 129.174L3.1752 129.014V129.272H3.3002ZM3.3002 132.434V132.559H3.4252V132.434H3.3002ZM2.01905 132.434H1.89405V132.559H2.01905V132.434ZM3.56883 119.994L3.62602 120.106L3.62643 120.105L3.56883 119.994ZM6.28955 121.138L6.20116 121.226L6.20182 121.227L6.28955 121.138ZM3.3002 122.385L3.1752 122.383V122.385H3.3002ZM3.3002 128.095H3.1752V128.14L3.20478 128.175L3.3002 128.095ZM4.0992 128.673L4.04843 128.787L4.04977 128.788L4.0992 128.673ZM6.74415 125.519L6.64859 125.599L6.64908 125.6L6.74415 125.519ZM5.51122 124.926L5.51466 124.801H5.51122V124.926ZM4.47803 124.926H4.35303V125.051H4.47803V124.926ZM4.47803 123.879V123.754H4.35303V123.879H4.47803ZM6.32399 123.473L6.40943 123.564L6.41019 123.563L6.32399 123.473ZM5.08417 119.748C5.94539 119.748 6.62424 119.992 7.13379 120.471L7.30503 120.289C6.74007 119.758 5.99542 119.498 5.08417 119.498V119.748ZM7.13459 120.472C7.64854 120.947 7.90718 121.562 7.90718 122.329H8.15718C8.15718 121.499 7.87398 120.815 7.30423 120.288L7.13459 120.472ZM7.90718 122.329C7.90718 122.723 7.80152 123.083 7.58962 123.412L7.79973 123.547C8.03784 123.178 8.15718 122.771 8.15718 122.329H7.90718ZM7.58962 123.412C7.37747 123.741 7.07997 124.007 6.69313 124.209L6.80894 124.431C7.23028 124.211 7.56188 123.916 7.79973 123.547L7.58962 123.412ZM6.70809 124.437C7.25085 124.636 7.65972 124.949 7.94179 125.374L8.15013 125.236C7.83525 124.761 7.38084 124.417 6.79398 124.203L6.70809 124.437ZM7.94261 125.375C8.23006 125.798 8.37556 126.294 8.37556 126.869H8.62556C8.62556 126.249 8.46799 125.703 8.1493 125.235L7.94261 125.375ZM8.37556 126.869C8.37556 127.783 8.09797 128.494 7.55301 129.017L7.72614 129.197C8.32916 128.618 8.62556 127.837 8.62556 126.869H8.37556ZM7.55302 129.017C7.01128 129.537 6.28917 129.802 5.37346 129.802V130.052C6.34044 130.052 7.12907 129.77 7.72612 129.197L7.55302 129.017ZM5.37346 129.802C4.56513 129.802 3.90288 129.59 3.37779 129.174L3.22261 129.37C3.79959 129.827 4.5195 130.052 5.37346 130.052V129.802ZM3.1752 129.272V132.434H3.4252V129.272H3.1752ZM3.3002 132.309H2.01905V132.559H3.3002V132.309ZM2.14405 132.434V122.398H1.89405V132.434H2.14405ZM2.14405 122.398C2.14405 121.928 2.27659 121.487 2.54407 121.075L2.33436 120.939C2.04163 121.39 1.89405 121.877 1.89405 122.398H2.14405ZM2.54407 121.075C2.81191 120.662 3.17175 120.339 3.62602 120.106L3.51164 119.883C3.01998 120.136 2.62674 120.488 2.33436 120.939L2.54407 121.075ZM3.62643 120.105C4.08639 119.867 4.57176 119.748 5.08417 119.748V119.498C4.53124 119.498 4.00639 119.626 3.51123 119.884L3.62643 120.105ZM6.88292 122.302C6.88292 121.803 6.71513 121.382 6.37728 121.049L6.20182 121.227C6.48847 121.509 6.63292 121.864 6.63292 122.302H6.88292ZM6.37793 121.049C6.0395 120.711 5.60456 120.544 5.08417 120.544V120.794C5.54644 120.794 5.91509 120.94 6.20116 121.226L6.37793 121.049ZM5.08417 120.544C4.55789 120.544 4.1065 120.719 3.73775 121.068L3.90962 121.249C4.22965 120.946 4.61859 120.794 5.08417 120.794V120.544ZM3.73775 121.068C3.36773 121.418 3.1801 121.86 3.17521 122.383L3.4252 122.386C3.42948 121.927 3.59085 121.551 3.90962 121.249L3.73775 121.068ZM3.1752 122.385V128.095H3.4252V122.385H3.1752ZM3.20478 128.175C3.42077 128.431 3.70329 128.634 4.04843 128.787L4.14996 128.559C3.83387 128.419 3.58373 128.236 3.39563 128.014L3.20478 128.175ZM4.04977 128.788C4.39878 128.938 4.79727 129.012 5.24259 129.012V128.762C4.82463 128.762 4.46085 128.693 4.14863 128.558L4.04977 128.788ZM5.24259 129.012C5.88433 129.012 6.40408 128.819 6.78599 128.422L6.60587 128.249C6.28063 128.587 5.83148 128.762 5.24259 128.762V129.012ZM6.78599 128.422C7.1656 128.028 7.3513 127.515 7.3513 126.896H7.1013C7.1013 127.462 6.93342 127.909 6.60587 128.249L6.78599 128.422ZM7.3513 126.896C7.3513 126.328 7.18184 125.839 6.83922 125.437L6.64908 125.6C6.94932 125.951 7.1013 126.381 7.1013 126.896H7.3513ZM6.8397 125.438C6.49518 125.029 6.05062 124.816 5.51465 124.801L5.50778 125.051C5.97285 125.064 6.35025 125.245 6.64859 125.599L6.8397 125.438ZM5.51122 124.801H4.47803V125.051H5.51122V124.801ZM4.60303 124.926V123.879H4.35303V124.926H4.60303ZM4.47803 124.004H5.0635V123.754H4.47803V124.004ZM5.0635 124.004C5.63379 124.004 6.08924 123.864 6.40943 123.564L6.23854 123.382C5.98015 123.624 5.59528 123.754 5.0635 123.754V124.004ZM6.41019 123.563C6.73044 123.258 6.88292 122.832 6.88292 122.302H6.63292C6.63292 122.782 6.49612 123.136 6.23778 123.382L6.41019 123.563Z" fill="white"/>
</svg>
