<svg width="156" height="153" viewBox="0 0 156 153" fill="none" xmlns="http://www.w3.org/2000/svg">
<path d="M2.91699 6.44727V150H152.917" stroke="#3AA1AB" stroke-width="5" stroke-miterlimit="10" stroke-linecap="round"/>
<path d="M43.3182 137.639C43.3182 139.006 41.0085 140.115 38.1606 140.115H17.1005C14.2526 140.115 11.9429 139.006 11.9429 137.639V91.0147C11.9429 89.6479 14.2526 88.5391 17.1005 88.5391H38.1606C41.0085 88.5391 43.3182 89.6479 43.3182 91.0147V137.639Z" fill="white" stroke="#3AA1AB" stroke-width="2" stroke-miterlimit="10"/>
<path d="M88.8768 136.525C88.8768 138.508 86.5671 140.114 83.7192 140.114H62.6591C59.8112 140.114 57.5015 138.507 57.5015 136.525V68.9198C57.5015 66.9367 59.8112 65.3301 62.6591 65.3301H83.7192C86.5671 65.3301 88.8768 66.9375 88.8768 68.9198V136.525Z" fill="white" stroke="#3AA1AB" stroke-width="2" stroke-miterlimit="10"/>
<path d="M135.295 134.957C135.295 137.805 132.986 140.115 130.138 140.115H109.078C106.23 140.115 103.92 137.805 103.92 134.957V37.8226C103.92 34.9748 106.23 32.665 109.078 32.665H130.138C132.986 32.665 135.295 34.9748 135.295 37.8226V134.957Z" fill="white" stroke="#3AA1AB" stroke-width="2" stroke-miterlimit="10"/>
<path d="M10.2236 68.7676C10.2236 68.7676 76.4892 55.8023 110.945 12.7295" stroke="#3AA1AB" stroke-width="3" stroke-miterlimit="10"/>
<path d="M114.463 24.0241L108.961 15.2278L98.8096 13.0805L119.608 0L114.463 24.0241Z" fill="#3AA1AB"/>
<path d="M20.1812 95.9881C20.1812 96.9432 20.1812 97.8982 20.1812 98.8532C20.1812 100.239 22.3301 100.239 22.3301 98.8532C22.3301 97.8982 22.3301 96.9432 22.3301 95.9881C22.3301 94.6016 20.1812 94.6016 20.1812 95.9881Z" fill="#3E3A39"/>
<path d="M31.9282 95.9881C31.9282 96.9432 31.9282 97.8982 31.9282 98.8532C31.9282 100.239 34.0772 100.239 34.0772 98.8532C34.0772 97.8982 34.0772 96.9432 34.0772 95.9881C34.0772 94.6016 31.9282 94.6016 31.9282 95.9881Z" fill="#3E3A39"/>
<path d="M65.7397 72.7792C65.7397 73.7342 65.7397 74.6892 65.7397 75.6442C65.7397 77.0299 67.8887 77.0299 67.8887 75.6442C67.8887 74.6892 67.8887 73.7342 67.8887 72.7792C67.8887 71.3926 65.7397 71.3926 65.7397 72.7792Z" fill="#3E3A39"/>
<path d="M77.4873 72.7792C77.4873 73.7342 77.4873 74.6892 77.4873 75.6442C77.4873 77.0299 79.6363 77.0299 79.6363 75.6442C79.6363 74.6892 79.6363 73.7342 79.6363 72.7792C79.6363 71.3926 77.4873 71.3926 77.4873 72.7792Z" fill="#3E3A39"/>
<path d="M113.018 40.9735C113.018 41.9285 113.018 42.8835 113.018 43.8385C113.018 45.2242 115.167 45.2242 115.167 43.8385C115.167 42.8835 115.167 41.9285 115.167 40.9735C115.167 39.587 113.018 39.587 113.018 40.9735Z" fill="#3E3A39"/>
<path d="M124.765 40.9735C124.765 41.9285 124.765 42.8835 124.765 43.8385C124.765 45.2242 126.914 45.2242 126.914 43.8385C126.914 42.8835 126.914 41.9285 126.914 40.9735C126.914 39.587 124.765 39.587 124.765 40.9735Z" fill="#3E3A39"/>
<path d="M115.524 48.9971H124.694C124.694 48.9971 120.396 57.306 115.524 48.9971Z" fill="#3E3A39"/>
<path d="M24.3367 103.235C26.637 101.782 29.6663 101.877 30.2955 104.984C30.4055 105.527 31.2342 105.297 31.1241 104.755C30.3866 101.114 26.6731 100.743 23.9026 102.493C23.4359 102.788 23.8665 103.532 24.3367 103.235Z" fill="#3E3A39"/>
<path d="M72.2578 80.5145C71.3982 80.5145 70.8248 80.2282 70.5386 81.0878C71.3982 82.5208 72.8311 82.807 74.2632 82.2337C74.2632 80.8016 73.4036 81.0878 72.2578 80.5145Z" fill="#3E3A39"/>
<path d="M72.2576 80.0838C71.71 80.0709 71.1771 79.9549 70.6674 80.2059C70.4473 80.3142 70.2822 80.5755 70.1954 80.7939C70.0407 81.1815 70.1877 81.3569 70.4284 81.6818C71.3714 82.9583 72.9608 83.1732 74.3782 82.6472C74.5553 82.5818 74.7006 82.4357 74.6937 82.2328C74.6757 81.7033 74.5854 81.1919 74.1539 80.8411C73.6854 80.4612 73.0115 80.3933 72.4751 80.1423C71.9765 79.9085 71.5398 80.6495 72.041 80.8841C72.3943 81.0492 72.7544 81.1781 73.1258 81.295C73.6527 81.4601 73.8152 81.6629 73.8341 82.2328C73.9398 82.0944 74.0447 81.9569 74.1496 81.8185C73.351 82.1151 72.5559 82.1967 71.7848 81.7773C71.6155 81.6853 70.6613 80.9761 71.251 80.9013C71.5759 80.8601 71.9309 80.9357 72.2576 80.9434C72.812 80.9563 72.8112 80.0967 72.2576 80.0838Z" fill="#3E3A39"/>
</svg>
