<svg width="157" height="164" viewBox="0 0 157 164" fill="none" xmlns="http://www.w3.org/2000/svg">
<path d="M153.998 51.5762L127.719 77.0581V51.5762H153.998Z" fill="#C5E0E4"/>
<path d="M127.72 77.0576L98.9197 104.995H79.7229H50.9231L79.7229 77.0576H127.72Z" fill="#C5E0E4"/>
<path d="M50.9231 77.0576V104.995H31.7168H2.91699L31.7168 77.0576H50.9231Z" fill="#C5E0E4"/>
<path d="M127.719 77.0576V125.064H79.7229V104.995H98.9196L127.719 77.0576Z" fill="#97CED5"/>
<path d="M50.923 104.995H31.7168V125.064H50.923V104.995Z" fill="#97CED5"/>
<path d="M79.7229 29.0518V30.0661L50.923 58.8659V77.0578H31.7168V29.0518H79.7229Z" fill="#97CED5"/>
<path d="M127.719 51.5759V77.0578H79.7229V30.0661L80.7278 29.0518H106.788H127.719V51.5759Z" fill="#97CED5"/>
<path d="M127.719 51.5752H153.998L127.719 77.0571" stroke="#3AA1AB" stroke-width="2" stroke-miterlimit="10"/>
<path d="M127.719 77.0566V125.063H79.7229" stroke="#3AA1AB" stroke-width="2" stroke-miterlimit="10"/>
<path d="M106.788 29.0508H127.72V51.575V77.0568" stroke="#3AA1AB" stroke-width="2" stroke-miterlimit="10"/>
<path d="M79.7229 30.0651L80.7278 29.0508" stroke="#3AA1AB" stroke-width="2" stroke-miterlimit="10"/>
<path d="M79.7229 77.0566H127.719L98.9196 104.994H79.7229" stroke="#3AA1AB" stroke-width="2" stroke-miterlimit="10"/>
<path d="M80.7278 29.0507L106.788 3V29.0507H80.7278Z" stroke="#3AA1AB" stroke-width="2" stroke-miterlimit="10"/>
<path d="M50.9231 104.994H79.7229V125.063L50.9231 153V125.063" stroke="#3AA1AB" stroke-width="2" stroke-miterlimit="10"/>
<path d="M79.7229 30.0645V77.0562L50.9231 104.993" stroke="#3AA1AB" stroke-width="2" stroke-miterlimit="10"/>
<path d="M31.7168 77.0568V29.0508H79.7229V30.0651L50.923 58.865V77.0568" stroke="#3AA1AB" stroke-width="2" stroke-miterlimit="10"/>
<path d="M50.923 104.994V125.063H31.7168V104.994" stroke="#3AA1AB" stroke-width="2" stroke-miterlimit="10"/>
<path d="M50.9231 77.0566V104.994H31.7168H2.91699L31.7168 77.0566H50.9231Z" stroke="#3AA1AB" stroke-width="2" stroke-miterlimit="10"/>
<path d="M84.728 15.0234V30.0003" stroke="#3AA1AB" stroke-width="2" stroke-miterlimit="10"/>
<path d="M78.917 17.4887L84.728 4L90.538 17.4887H78.917Z" fill="#3AA1AB"/>
<path d="M83.0601 133.004L82.9971 163.071" stroke="#3AA1AB" stroke-width="2" stroke-miterlimit="10"/>
</svg>
